<svg xmlns="http://www.w3.org/2000/svg" xmlns:osb="http://www.openswatchbook.org/uri/2009/osb" xmlns:svg="http://www.w3.org/2000/svg" xmlns:xlink="http://www.w3.org/1999/xlink" id="svg8" width="210mm" height="297mm" version="1.1" viewBox="0 0 210 297"><defs id="defs2"><linearGradient id="linearGradient6070" osb:paint="solid"><stop style="stop-color:#f9f9f9;stop-opacity:1" id="stop6068" offset="0"/></linearGradient><linearGradient id="linearGradient6072" x1="26.903" x2="48.006" y1="126.953" y2="126.953" gradientTransform="translate(0.04671955)" gradientUnits="userSpaceOnUse" xlink:href="#linearGradient6070"/><linearGradient id="linearGradient6172" x1="26.903" x2="48.006" y1="126.953" y2="126.953" gradientTransform="translate(0.04671955)" gradientUnits="userSpaceOnUse" xlink:href="#linearGradient6070"/></defs><metadata id="metadata5"/><g id="layer1"><rect style="opacity:1;fill:#f0f;fill-opacity:1;stroke:none;stroke-width:.24180044;stroke-miterlimit:4;stroke-dasharray:none;stroke-opacity:1" id="rect5972" width="26.458" height="26.458" x="-31.561" y="110.469"/><rect id="rect3713" width="16.191" height="21.441" x="-26.239" y="113.187" style="fill:#fff;stroke:#000;stroke-width:.15740912;stroke-miterlimit:4;stroke-dasharray:none;stroke-opacity:1"/><rect id="rect5974" width="26.458" height="26.458" x="-3.565" y="110.402" style="opacity:1;fill:#f0f;fill-opacity:1;stroke:none;stroke-width:.24180044;stroke-miterlimit:4;stroke-dasharray:none;stroke-opacity:1"/><path style="fill:#fc0;stroke:#000;stroke-width:.70563692;stroke-miterlimit:4;stroke-dasharray:none;stroke-opacity:1" id="rect5976" d="M -6.2070312 427.56836 L -6.2070312 508.55469 L 79.935547 508.55469 L 79.935547 443.39844 L 22.076172 443.39844 L 22.076172 427.56836 L -6.2070312 427.56836 z" transform="scale(0.26458333)"/><rect id="rect5981" width="26.458" height="26.458" x="24.232" y="110.469" style="opacity:1;fill:#f0f;fill-opacity:1;stroke:none;stroke-width:.24180044;stroke-miterlimit:4;stroke-dasharray:none;stroke-opacity:1"/><g id="g6190" transform="translate(0.00585365,0.31953621)"><rect id="rect5983" width="23.249" height="22.486" x="25.831" y="112.135" style="fill:#00f;stroke:#000;stroke-width:.19315933;stroke-miterlimit:4;stroke-dasharray:none;stroke-opacity:1"/><g id="g6180" transform="translate(-0.03224696)"><path style="fill:#f9f9f9;stroke:#000;stroke-width:.09182406;stroke-miterlimit:4;stroke-dasharray:none;stroke-opacity:1" id="rect5985" d="m 26.999075,112.83187 v 5.63222 h 20.975979 v -5.63222 z m 14.804263,0.83716 h 3.394626 v 4.02198 h -3.394626 z"/><g id="g6170" transform="translate(-0.01447128)"><rect id="rect5987" width="20.962" height="13.251" x="27.02" y="120.328" style="fill:url(#linearGradient6172);fill-opacity:1;stroke:#000;stroke-width:.141;stroke-miterlimit:4;stroke-dasharray:none;stroke-opacity:1"/><rect style="fill:#999;fill-opacity:1;stroke:#000;stroke-width:.06061909;stroke-miterlimit:4;stroke-dasharray:none;stroke-opacity:1" id="rect6158" width="21.043" height="2.44" x="26.98" y="122.426"/><rect id="rect6162" width="21.043" height="2.44" x="26.98" y="126.702" style="fill:#999;fill-opacity:1;stroke:#000;stroke-width:.06061909;stroke-miterlimit:4;stroke-dasharray:none;stroke-opacity:1"/><rect style="fill:#999;fill-opacity:1;stroke:#000;stroke-width:.06061909;stroke-miterlimit:4;stroke-dasharray:none;stroke-opacity:1" id="rect6164" width="21.043" height="2.44" x="26.98" y="131.139"/></g></g></g><rect style="opacity:1;fill:#f0f;fill-opacity:1;stroke:none;stroke-width:.24180044;stroke-miterlimit:4;stroke-dasharray:none;stroke-opacity:1" id="rect6211" width="26.458" height="26.458" x="52.295" y="110.536"/><g id="g6279" transform="translate(0.4677776,-0.47723961)"><rect id="rect6251" width="16.191" height="21.441" x="56.96" y="113.521" style="fill:#fff;stroke:#000;stroke-width:.15740912;stroke-miterlimit:4;stroke-dasharray:none;stroke-opacity:1"/><rect id="rect6253" width="23.249" height="2.714" x="53.432" y="123.33" style="fill:maroon;stroke:#000;stroke-width:.06710984;stroke-miterlimit:4;stroke-dasharray:none;stroke-opacity:1"/><path id="rect6255" d="m 53.431838,123.33007 v 9.94048 h 3.528467 v -4.8488 h 16.191259 v 4.8488 h 3.528984 v -9.94048 h -3.528984 v 2.07791 H 56.960305 v -2.07791 z" style="fill:gray;stroke:#000;stroke-width:.12842852;stroke-miterlimit:4;stroke-dasharray:none;stroke-opacity:1"/></g><rect id="rect4538" width="26.458" height="26.458" x="82.533" y="110.914" style="opacity:1;fill:#f0f;fill-opacity:1;stroke:none;stroke-width:.24180044;stroke-miterlimit:4;stroke-dasharray:none;stroke-opacity:1"/><path style="opacity:1;fill:#483737;fill-opacity:1;stroke:#000;stroke-width:.0916917;stroke-miterlimit:4;stroke-dasharray:none;stroke-opacity:1" id="rect4548" d="m 102.67192,115.9796 c -0.2407,0 -0.4345,0.1938 -0.4345,0.43452 v 12.3468 H 92.101153 l -0.0013,-1.81468 -2.305302,1.33312 -2.3053,1.33311 2.307317,1.33008 2.30698,1.32974 -9.74e-4,-1.66781 h 10.569436 0.97421 c 0.24072,0 0.4345,-0.19379 0.4345,-0.43451 v -0.97455 -12.7813 c 0,-0.24072 -0.19378,-0.43452 -0.4345,-0.43452 z"/><rect style="opacity:1;fill:#f0f;fill-opacity:1;stroke:none;stroke-width:.24180044;stroke-miterlimit:4;stroke-dasharray:none;stroke-opacity:1" id="rect4572" width="26.458" height="26.458" x="-142.064" y="111.103" transform="scale(-1,1)"/><path id="path4574" d="m 121.92512,116.16859 c 0.2407,0 0.4345,0.1938 0.4345,0.43452 v 12.3468 h 10.13627 l 0.001,-1.81468 2.3053,1.33312 2.3053,1.33311 -2.30731,1.33008 -2.30698,1.32974 9.7e-4,-1.66781 h -10.56944 -0.97421 c -0.24072,0 -0.4345,-0.19379 -0.4345,-0.43451 v -0.97455 -12.7813 c 0,-0.24072 0.19378,-0.43452 0.4345,-0.43452 z" style="opacity:1;fill:#483737;fill-opacity:1;stroke:#000;stroke-width:.0916917;stroke-miterlimit:4;stroke-dasharray:none;stroke-opacity:1"/><rect id="rect4576" width="26.458" height="26.458" x="-176.082" y="111.481" transform="scale(-1,1)" style="opacity:1;fill:#f0f;fill-opacity:1;stroke:none;stroke-width:.24180044;stroke-miterlimit:4;stroke-dasharray:none;stroke-opacity:1"/><g id="g4589" transform="translate(-1.5667973,-1.3505969)"><rect id="rect4580" width="7.182" height="6.615" x="153.647" y="116.138" ry=".668" style="opacity:1;fill:red;fill-opacity:1;stroke:#000;stroke-width:.141;stroke-miterlimit:4;stroke-dasharray:none;stroke-opacity:1"/><rect style="opacity:1;fill:green;fill-opacity:1;stroke:#000;stroke-width:.141;stroke-miterlimit:4;stroke-dasharray:none;stroke-opacity:1" id="rect4582" width="7.182" height="6.615" x="160.829" y="122.753" ry=".668"/><rect id="rect4584" width="7.182" height="6.615" x="168.01" y="129.368" ry=".668" style="opacity:1;fill:#00f;fill-opacity:1;stroke:#000;stroke-width:.141;stroke-miterlimit:4;stroke-dasharray:none;stroke-opacity:1"/></g><rect style="opacity:1;fill:#f0f;fill-opacity:1;stroke:none;stroke-width:.24180044;stroke-miterlimit:4;stroke-dasharray:none;stroke-opacity:1" id="rect4591" width="26.458" height="26.458" x="-207.265" y="111.858" transform="scale(-1,1)"/><rect id="rect4593" width="7.182" height="6.615" x="183.264" y="115.166" ry=".668" style="opacity:1;fill:#f60;fill-opacity:1;stroke:#000;stroke-width:.141;stroke-miterlimit:4;stroke-dasharray:none;stroke-opacity:1"/><rect style="opacity:1;fill:navy;fill-opacity:1;stroke:#000;stroke-width:.141;stroke-miterlimit:4;stroke-dasharray:none;stroke-opacity:1" id="rect4595" width="7.182" height="6.615" x="190.445" y="121.78" ry=".668"/><rect id="rect4597" width="7.182" height="6.615" x="197.627" y="128.395" ry=".668" style="opacity:1;fill:#fc0;fill-opacity:1;stroke:#000;stroke-width:.141;stroke-miterlimit:4;stroke-dasharray:none;stroke-opacity:1"/><rect style="opacity:1;fill:#fc0;fill-opacity:1;stroke:#000;stroke-width:.141;stroke-miterlimit:4;stroke-dasharray:none;stroke-opacity:1" id="rect4604" width="7.182" height="6.615" x="197.627" y="121.78" ry=".668"/><rect id="rect4606" width="7.182" height="6.615" x="197.627" y="115.166" ry=".668" style="opacity:1;fill:#fc0;fill-opacity:1;stroke:#000;stroke-width:.141;stroke-miterlimit:4;stroke-dasharray:none;stroke-opacity:1"/><rect style="opacity:1;fill:#fc0;fill-opacity:1;stroke:#000;stroke-width:.141;stroke-miterlimit:4;stroke-dasharray:none;stroke-opacity:1" id="rect4608" width="7.182" height="6.615" x="190.445" y="115.166" ry=".668"/><rect id="rect4610" width="7.182" height="6.615" x="183.264" y="121.78" ry=".668" style="opacity:1;fill:#fc0;fill-opacity:1;stroke:#000;stroke-width:.141;stroke-miterlimit:4;stroke-dasharray:none;stroke-opacity:1"/><rect style="opacity:1;fill:#fc0;fill-opacity:1;stroke:#000;stroke-width:.141;stroke-miterlimit:4;stroke-dasharray:none;stroke-opacity:1" id="rect4612" width="7.182" height="6.615" x="183.264" y="128.395" ry=".668"/><rect id="rect4614" width="7.182" height="6.615" x="190.445" y="128.395" ry=".668" style="opacity:1;fill:#fc0;fill-opacity:1;stroke:#000;stroke-width:.141;stroke-miterlimit:4;stroke-dasharray:none;stroke-opacity:1"/></g></svg>